<?xml version="1.0" encoding="utf-8"?>
<!-- Generator: Adobe Illustrator 23.0.5, SVG Export Plug-In . SVG Version: 6.00 Build 0)  -->
<svg version="1.1" id="Layer_1" xmlns="http://www.w3.org/2000/svg" xmlns:xlink="http://www.w3.org/1999/xlink" x="0px" y="0px"
	 viewBox="0 0 200 200" style="enable-background:new 0 0 200 200;" xml:space="preserve">
<style type="text/css">
	.st0{fill:#4A38B2;}
	.st1{fill:#7C6DF4;}
	.st2{fill:#6CA5F6;}
	.st3{fill:#9DEDFC;}
</style>
<path d="M-317.3-99.9c-16.3,1-27.8,9-35.8,22.5c-3.6,6.2-6.5,12.7-10.1,18.9c-9.6,16.3-22.9,27.6-42.1,30.3
	c-13.4,1.9-25-1.8-32.5-13.6c-7.6-12-6.1-24.5,1-36.3c7.8-13,20.2-20.6,34-25.7c26.5-9.9,52.9-7,79.2,1.5
	C-321.5-101.6-319.4-100.7-317.3-99.9z"/>
<path d="M-399.6,61c-15.3-0.1-27.3-3.2-37.5-11.7c-12-10-16.6-25.6-12-39.6c4.4-13.3,18-23.1,32.9-24.6
	c30.5-3.1,55.4,22.7,59.8,49.7c0.3,2.1-0.6,5-1.9,6.8C-369.2,56-384.7,60.5-399.6,61z"/>
<path d="M-364.4,60.7c12.3-6.9,18.4-17.5,23.1-29.3c5.7-14.2,12.7-27.7,25.9-36.5c4.9-3.3,10.3-6.2,16-7.9
	c10.8-3.4,19.5,2.4,20,13.6c0.6,13.5,0.7,27,0,40.5c-0.6,11.2-9,19-21.6,19.4C-321.8,61.2-342.6,60.7-364.4,60.7z"/>
<path d="M-348-60.9c1.3,1.3,3.1,2.4,3.9,4c6.7,13.1,16.3,23.4,28.9,31c4.4,2.7,4.4,6.2,0.1,8.8c-12.6,7.6-22.2,17.9-28.9,31
	c-2.3,4.5-6.4,4.5-8.7,0.2c-6.8-13.3-16.5-23.7-29.3-31.3c-4.3-2.5-4.2-5.9,0.1-8.5c12.8-7.6,22.5-18,29.2-31.3
	c0.8-1.7,1.5-3.4,2.3-5.1C-349.6-61.8-348.8-61.4-348-60.9z"/>
<path d="M-279.2-47c0.2,16.4-7.1,22-19.6,17.5c-21.3-7.5-34.8-22.4-40.8-44.2c-0.9-3.2-0.1-5.5,2.4-7.9c14-12.8,34.6-10.4,47.2,5.8
	C-282.7-66.3-279.4-55.5-279.2-47z"/>
<image style="overflow:visible;" width="233" height="171" xlink:href="45B9926D.jpg"  transform="matrix(1 0 0 1 -262.0425 38.9362)">
</image>
<path class="st0" d="M156.2,11.8c-19.1,1.1-32.5,10.5-41.8,26.4c-4.2,7.2-7.6,14.9-11.9,22.1c-11.2,19-26.8,32.3-49.3,35.5
	C37.6,98,24,93.6,15.2,79.8c-8.9-14.1-7.1-28.6,1.2-42.5c9.2-15.3,23.6-24,39.7-30.1c31-11.6,61.9-8.2,92.6,1.7
	C151.2,9.9,153.7,10.9,156.2,11.8z"/>
<path class="st1" d="M60,200c-17.9-0.1-32-3.7-43.9-13.7c-14-11.7-19.4-30-14-46.3c5.1-15.5,21-27,38.5-28.8
	c35.6-3.6,64.8,26.5,69.9,58.1c0.4,2.5-0.7,5.9-2.3,8C95.4,194.2,77.4,199.3,60,200z"/>
<path class="st2" d="M101.1,199.6c14.4-8,21.5-20.5,27-34.3c6.6-16.6,14.8-32.4,30.2-42.6c5.8-3.8,12.1-7.2,18.7-9.2
	c12.7-3.9,22.8,2.8,23.4,15.9c0.7,15.7,0.8,31.6,0,47.3c-0.7,13.1-10.5,22.2-25.3,22.7C150.9,200.2,126.6,199.6,101.1,199.6z"/>
<path class="st3" d="M200.8,73.7c0.2,19.2-8.3,25.7-23,20.5c-24.9-8.8-40.7-26.2-47.7-51.7c-1-3.8-0.2-6.5,2.8-9.2
	c16.4-15,40.4-12.1,55.2,6.8C196.6,51.1,200.5,63.7,200.8,73.7z"/>
</svg>
