<?xml version="1.0" encoding="utf-8"?>
<!-- Generator: Adobe Illustrator 23.0.5, SVG Export Plug-In . SVG Version: 6.00 Build 0)  -->
<svg version="1.1" id="Layer_1" xmlns="http://www.w3.org/2000/svg" xmlns:xlink="http://www.w3.org/1999/xlink" x="0px" y="0px"
	 viewBox="0 0 200 200" style="enable-background:new 0 0 200 200;" xml:space="preserve">
<style type="text/css">
	.st0{fill:#4A38B2;}
	.st1{fill:#7C6DF4;}
	.st2{fill:#6CA5F6;}
	.st3{fill:#9DEDFC;}
</style>
<path class="st0" d="M153.9,15.5c-18.3,1.1-31.2,10.1-40.1,25.3c-4.1,6.9-7.3,14.3-11.4,21.2c-10.7,18.2-25.6,31-47.2,34
	c-15,2.1-28.1-2.1-36.4-15.3c-8.5-13.5-6.8-27.5,1.1-40.7c8.8-14.6,22.6-23,38.1-28.8c29.7-11.1,59.3-7.9,88.7,1.7
	C149.1,13.6,151.5,14.6,153.9,15.5z"/>
<path class="st1" d="M61.6,195.9c-17.1-0.1-30.6-3.6-42-13.1C6.2,171.5,1,154,6.1,138.4c4.9-14.9,20.1-25.9,36.9-27.6
	c34.2-3.5,62.1,25.4,67,55.7c0.4,2.4-0.7,5.6-2.2,7.6C95.6,190.3,78.3,195.2,61.6,195.9z"/>
<path class="st2" d="M101.1,195.5c13.8-7.7,20.6-19.7,25.9-32.8c6.4-15.9,14.2-31,29-40.9c5.5-3.7,11.6-6.9,17.9-8.9
	c12.1-3.8,21.8,2.7,22.4,15.2c0.7,15.1,0.7,30.3,0,45.3c-0.6,12.6-10,21.3-24.3,21.8C148.8,196.1,125.5,195.5,101.1,195.5z"/>
<path class="st3" d="M196.6,74.8c0.2,18.4-8,24.6-22,19.6c-23.8-8.4-39-25.1-45.7-49.6c-1-3.6-0.2-6.2,2.7-8.8
	c15.7-14.4,38.7-11.6,52.9,6.6C192.6,53.1,196.3,65.2,196.6,74.8z"/>
</svg>
