<svg width="213" height="195" viewBox="0 0 213 195" fill="none" xmlns="http://www.w3.org/2000/svg">
<g filter="url(#filter0_f_3_1618)">
<circle cx="132.272" cy="67.7201" r="23.7201" fill="#FFC701" fill-opacity="0.5"/>
</g>
<circle cx="132.272" cy="68.4976" r="21.9424" fill="url(#paint0_linear_3_1618)" stroke="url(#paint1_linear_3_1618)" stroke-width="2"/>
<mask id="mask0_3_1618" style="mask-type:alpha" maskUnits="userSpaceOnUse" x="109" y="58" width="47" height="34">
<path d="M155.214 68.498C155.214 81.1687 144.943 91.4404 132.272 91.4404C119.601 91.4404 109.33 81.1687 109.33 68.498C109.33 55.8272 117.851 58.7766 130.522 58.7766C143.193 58.7766 155.214 55.8272 155.214 68.498Z" fill="url(#paint2_linear_3_1618)"/>
</mask>
<g mask="url(#mask0_3_1618)">
<g filter="url(#filter1_f_3_1618)">
<path fill-rule="evenodd" clip-rule="evenodd" d="M150.354 127.214C150.419 127.215 150.483 127.215 150.548 127.215C159.783 127.215 167.269 119.729 167.269 110.495C167.269 101.26 159.783 93.7738 150.548 93.7738C150.483 93.7738 150.419 93.7742 150.354 93.7749V93.7738H139.694C139.928 92.3828 140.049 90.9538 140.049 89.4964C140.049 75.3224 128.559 63.832 114.385 63.832C100.211 63.832 88.7205 75.3224 88.7205 89.4964C88.7205 91.0105 88.8516 92.494 89.1031 93.9361C80.976 95.0739 74.7217 102.054 74.7217 110.495C74.7217 119.729 82.2078 127.215 91.4424 127.215C91.5076 127.215 91.5728 127.215 91.6378 127.214L91.6369 127.215H150.354V127.214Z" fill="#E18700"/>
</g>
</g>
<g filter="url(#filter2_bd_3_1618)">
<mask id="path-5-inside-1_3_1618" fill="white">
<path fill-rule="evenodd" clip-rule="evenodd" d="M140.632 129.158C140.697 129.159 140.762 129.159 140.827 129.159C150.061 129.159 157.547 121.673 157.547 112.439C157.547 103.204 150.061 95.7179 140.827 95.7179C140.762 95.7179 140.697 95.7182 140.632 95.719V95.7179H136.313C136.469 94.5736 136.549 93.4052 136.549 92.2181C136.549 78.0441 125.059 66.5537 110.885 66.5537C96.7107 66.5537 85.2204 78.0441 85.2204 92.2181C85.2204 93.5556 85.3227 94.8691 85.5199 96.1514C84.2994 95.8678 83.0276 95.7179 81.7207 95.7179C72.4861 95.7179 65 103.204 65 112.439C65 121.673 72.4861 129.159 81.7207 129.159C81.786 129.159 81.8511 129.159 81.9161 129.158L81.9152 129.159H140.632V129.158Z"/>
</mask>
<path fill-rule="evenodd" clip-rule="evenodd" d="M140.632 129.158C140.697 129.159 140.762 129.159 140.827 129.159C150.061 129.159 157.547 121.673 157.547 112.439C157.547 103.204 150.061 95.7179 140.827 95.7179C140.762 95.7179 140.697 95.7182 140.632 95.719V95.7179H136.313C136.469 94.5736 136.549 93.4052 136.549 92.2181C136.549 78.0441 125.059 66.5537 110.885 66.5537C96.7107 66.5537 85.2204 78.0441 85.2204 92.2181C85.2204 93.5556 85.3227 94.8691 85.5199 96.1514C84.2994 95.8678 83.0276 95.7179 81.7207 95.7179C72.4861 95.7179 65 103.204 65 112.439C65 121.673 72.4861 129.159 81.7207 129.159C81.786 129.159 81.8511 129.159 81.9161 129.158L81.9152 129.159H140.632V129.158Z" fill="url(#paint3_linear_3_1618)" shape-rendering="crispEdges"/>
<path d="M140.632 129.158L140.655 127.158C140.121 127.152 139.606 127.36 139.226 127.736C138.846 128.112 138.632 128.624 138.632 129.158H140.632ZM140.632 95.719H138.632C138.632 96.2534 138.846 96.7655 139.226 97.1412C139.606 97.5169 140.121 97.7249 140.655 97.7188L140.632 95.719ZM140.632 95.7179H142.632C142.632 94.6133 141.737 93.7179 140.632 93.7179V95.7179ZM136.313 95.7179L134.331 95.4477C134.253 96.0199 134.426 96.598 134.806 97.0331C135.186 97.4682 135.735 97.7179 136.313 97.7179V95.7179ZM85.5199 96.1514L85.0673 98.0995C85.7138 98.2497 86.3928 98.0693 86.8796 97.6181C87.3664 97.1668 87.5976 96.5034 87.4967 95.8473L85.5199 96.1514ZM81.9161 129.158L83.4867 130.396C83.9636 129.792 84.0507 128.966 83.7106 128.275C83.3705 127.584 82.6636 127.15 81.8932 127.158L81.9161 129.158ZM81.9152 129.159L80.3446 127.921C79.8702 128.523 79.7813 129.343 80.1157 130.032C80.4501 130.722 81.149 131.159 81.9152 131.159V129.159ZM140.632 129.159V131.159C141.737 131.159 142.632 130.264 142.632 129.159H140.632ZM140.609 131.158C140.682 131.159 140.754 131.159 140.827 131.159V127.159C140.769 127.159 140.712 127.159 140.655 127.158L140.609 131.158ZM140.827 131.159C151.166 131.159 159.547 122.778 159.547 112.439H155.547C155.547 120.569 148.957 127.159 140.827 127.159V131.159ZM159.547 112.439C159.547 102.099 151.166 93.7179 140.827 93.7179V97.7179C148.957 97.7179 155.547 104.309 155.547 112.439H159.547ZM140.827 93.7179C140.754 93.7179 140.682 93.7183 140.609 93.7191L140.655 97.7188C140.712 97.7182 140.769 97.7179 140.827 97.7179V93.7179ZM138.632 95.7179V95.719H142.632V95.7179H138.632ZM136.313 97.7179H140.632V93.7179H136.313V97.7179ZM138.294 95.9881C138.462 94.7545 138.549 93.4959 138.549 92.2181H134.549C134.549 93.3146 134.475 94.3926 134.331 95.4477L138.294 95.9881ZM138.549 92.2181C138.549 76.9395 126.163 64.5537 110.885 64.5537V68.5537C123.954 68.5537 134.549 79.1486 134.549 92.2181H138.549ZM110.885 64.5537C95.6062 64.5537 83.2204 76.9395 83.2204 92.2181H87.2204C87.2204 79.1486 97.8153 68.5537 110.885 68.5537V64.5537ZM83.2204 92.2181C83.2204 93.6577 83.3305 95.0729 83.5431 96.4554L87.4967 95.8473C87.3149 94.6653 87.2204 93.4534 87.2204 92.2181H83.2204ZM85.9725 94.2032C84.6046 93.8854 83.181 93.7179 81.7207 93.7179V97.7179C82.8741 97.7179 83.9941 97.8501 85.0673 98.0995L85.9725 94.2032ZM81.7207 93.7179C71.3816 93.7179 63 102.099 63 112.439H67C67 104.309 73.5907 97.7179 81.7207 97.7179V93.7179ZM63 112.439C63 122.778 71.3816 131.159 81.7207 131.159V127.159C73.5907 127.159 67 120.569 67 112.439H63ZM81.7207 131.159C81.7936 131.159 81.8663 131.159 81.939 131.158L81.8932 127.158C81.8358 127.159 81.7783 127.159 81.7207 127.159V131.159ZM83.4858 130.398L83.4867 130.396L80.3455 127.92L80.3446 127.921L83.4858 130.398ZM140.632 127.159H81.9152V131.159H140.632V127.159ZM138.632 129.158V129.159H142.632V129.158H138.632Z" fill="url(#paint4_linear_3_1618)" mask="url(#path-5-inside-1_3_1618)"/>
</g>
<g filter="url(#filter3_bd_3_1618)">
<mask id="path-7-inside-2_3_1618" fill="white">
<path fill-rule="evenodd" clip-rule="evenodd" d="M170.987 111.797C171.034 111.798 171.081 111.798 171.128 111.798C177.801 111.798 183.212 106.388 183.212 99.7142C183.212 93.0404 177.801 87.6303 171.128 87.6303C171.081 87.6303 171.034 87.6306 170.987 87.6311V87.6303H167.865C167.978 86.8033 168.036 85.959 168.036 85.1011C168.036 74.8577 159.733 66.5537 149.489 66.5537C139.246 66.5537 130.942 74.8577 130.942 85.1011C130.942 86.0676 131.016 87.0169 131.158 87.9436C130.276 87.7386 129.357 87.6303 128.413 87.6303C121.739 87.6303 116.329 93.0404 116.329 99.7142C116.329 106.388 121.739 111.798 128.413 111.798C128.46 111.798 128.507 111.798 128.554 111.797L128.553 111.798H170.987V111.797Z"/>
</mask>
<path fill-rule="evenodd" clip-rule="evenodd" d="M170.987 111.797C171.034 111.798 171.081 111.798 171.128 111.798C177.801 111.798 183.212 106.388 183.212 99.7142C183.212 93.0404 177.801 87.6303 171.128 87.6303C171.081 87.6303 171.034 87.6306 170.987 87.6311V87.6303H167.865C167.978 86.8033 168.036 85.959 168.036 85.1011C168.036 74.8577 159.733 66.5537 149.489 66.5537C139.246 66.5537 130.942 74.8577 130.942 85.1011C130.942 86.0676 131.016 87.0169 131.158 87.9436C130.276 87.7386 129.357 87.6303 128.413 87.6303C121.739 87.6303 116.329 93.0404 116.329 99.7142C116.329 106.388 121.739 111.798 128.413 111.798C128.46 111.798 128.507 111.798 128.554 111.797L128.553 111.798H170.987V111.797Z" fill="url(#paint5_linear_3_1618)" shape-rendering="crispEdges"/>
<path d="M170.987 111.797L171.01 109.797C170.476 109.791 169.961 109.999 169.581 110.375C169.201 110.751 168.987 111.263 168.987 111.797H170.987ZM170.987 87.6311H168.987C168.987 88.1655 169.201 88.6776 169.581 89.0533C169.961 89.429 170.476 89.637 171.01 89.631L170.987 87.6311ZM170.987 87.6303H172.987C172.987 86.5257 172.092 85.6303 170.987 85.6303V87.6303ZM167.865 87.6303L165.884 87.3601C165.806 87.9324 165.979 88.5104 166.359 88.9455C166.739 89.3806 167.288 89.6303 167.865 89.6303V87.6303ZM131.158 87.9436L130.706 89.8917C131.352 90.0419 132.031 89.8616 132.518 89.4103C133.005 88.959 133.236 88.2956 133.135 87.6396L131.158 87.9436ZM128.554 111.797L130.125 113.035C130.601 112.43 130.688 111.605 130.348 110.914C130.008 110.223 129.301 109.789 128.531 109.797L128.554 111.797ZM128.553 111.798L126.982 110.561C126.508 111.162 126.419 111.982 126.754 112.671C127.088 113.361 127.787 113.798 128.553 113.798V111.798ZM170.987 111.798V113.798C172.092 113.798 172.987 112.903 172.987 111.798H170.987ZM170.964 113.797C171.019 113.798 171.073 113.798 171.128 113.798V109.798C171.088 109.798 171.049 109.798 171.01 109.797L170.964 113.797ZM171.128 113.798C178.906 113.798 185.212 107.493 185.212 99.7142H181.212C181.212 105.283 176.697 109.798 171.128 109.798V113.798ZM185.212 99.7142C185.212 91.9359 178.906 85.6303 171.128 85.6303V89.6303C176.697 89.6303 181.212 94.145 181.212 99.7142H185.212ZM171.128 85.6303C171.073 85.6303 171.019 85.6306 170.964 85.6312L171.01 89.631C171.049 89.6305 171.088 89.6303 171.128 89.6303V85.6303ZM168.987 87.6303V87.6311H172.987V87.6303H168.987ZM167.865 89.6303H170.987V85.6303H167.865V89.6303ZM169.847 87.9005C169.972 86.9842 170.036 86.0496 170.036 85.1011H166.036C166.036 85.8684 165.984 86.6224 165.884 87.3601L169.847 87.9005ZM170.036 85.1011C170.036 73.7531 160.837 64.5537 149.489 64.5537V68.5537C158.628 68.5537 166.036 75.9622 166.036 85.1011H170.036ZM149.489 64.5537C138.141 64.5537 128.942 73.7531 128.942 85.1011H132.942C132.942 75.9622 140.35 68.5537 149.489 68.5537V64.5537ZM128.942 85.1011C128.942 86.1698 129.024 87.2207 129.181 88.2476L133.135 87.6396C133.008 86.8132 132.942 85.9655 132.942 85.1011H128.942ZM131.611 85.9955C130.581 85.7563 129.51 85.6303 128.413 85.6303V89.6303C129.204 89.6303 129.971 89.721 130.706 89.8917L131.611 85.9955ZM128.413 85.6303C120.634 85.6303 114.329 91.9359 114.329 99.7142H118.329C118.329 94.145 122.843 89.6303 128.413 89.6303V85.6303ZM114.329 99.7142C114.329 107.493 120.634 113.798 128.413 113.798V109.798C122.843 109.798 118.329 105.283 118.329 99.7142H114.329ZM128.413 113.798C128.467 113.798 128.522 113.798 128.577 113.797L128.531 109.797C128.491 109.798 128.452 109.798 128.413 109.798V113.798ZM130.124 113.036L130.125 113.035L126.982 110.56L126.982 110.561L130.124 113.036ZM170.987 109.798H128.553V113.798H170.987V109.798ZM168.987 111.797V111.798H172.987V111.797H168.987Z" fill="url(#paint6_linear_3_1618)" mask="url(#path-7-inside-2_3_1618)"/>
</g>
<defs>
<filter id="filter0_f_3_1618" x="64.5518" y="0" width="135.44" height="135.44" filterUnits="userSpaceOnUse" color-interpolation-filters="sRGB">
<feFlood flood-opacity="0" result="BackgroundImageFix"/>
<feBlend mode="normal" in="SourceGraphic" in2="BackgroundImageFix" result="shape"/>
<feGaussianBlur stdDeviation="22" result="effect1_foregroundBlur_3_1618"/>
</filter>
<filter id="filter1_f_3_1618" x="60.7217" y="49.832" width="120.547" height="91.3833" filterUnits="userSpaceOnUse" color-interpolation-filters="sRGB">
<feFlood flood-opacity="0" result="BackgroundImageFix"/>
<feBlend mode="normal" in="SourceGraphic" in2="BackgroundImageFix" result="shape"/>
<feGaussianBlur stdDeviation="7" result="effect1_foregroundBlur_3_1618"/>
</filter>
<filter id="filter2_bd_3_1618" x="-6" y="31.5537" width="192.547" height="162.605" filterUnits="userSpaceOnUse" color-interpolation-filters="sRGB">
<feFlood flood-opacity="0" result="BackgroundImageFix"/>
<feGaussianBlur in="BackgroundImageFix" stdDeviation="7"/>
<feComposite in2="SourceAlpha" operator="in" result="effect1_backgroundBlur_3_1618"/>
<feColorMatrix in="SourceAlpha" type="matrix" values="0 0 0 0 0 0 0 0 0 0 0 0 0 0 0 0 0 0 127 0" result="hardAlpha"/>
<feOffset dx="-21" dy="15"/>
<feGaussianBlur stdDeviation="25"/>
<feComposite in2="hardAlpha" operator="out"/>
<feColorMatrix type="matrix" values="0 0 0 0 0.113725 0 0 0 0 0.14902 0 0 0 0 0.27451 0 0 0 0.25 0"/>
<feBlend mode="normal" in2="effect1_backgroundBlur_3_1618" result="effect2_dropShadow_3_1618"/>
<feBlend mode="normal" in="SourceGraphic" in2="effect2_dropShadow_3_1618" result="shape"/>
</filter>
<filter id="filter3_bd_3_1618" x="45.3286" y="31.5537" width="166.883" height="145.244" filterUnits="userSpaceOnUse" color-interpolation-filters="sRGB">
<feFlood flood-opacity="0" result="BackgroundImageFix"/>
<feGaussianBlur in="BackgroundImageFix" stdDeviation="7"/>
<feComposite in2="SourceAlpha" operator="in" result="effect1_backgroundBlur_3_1618"/>
<feColorMatrix in="SourceAlpha" type="matrix" values="0 0 0 0 0 0 0 0 0 0 0 0 0 0 0 0 0 0 127 0" result="hardAlpha"/>
<feOffset dx="-21" dy="15"/>
<feGaussianBlur stdDeviation="25"/>
<feComposite in2="hardAlpha" operator="out"/>
<feColorMatrix type="matrix" values="0 0 0 0 0.113438 0 0 0 0 0.148981 0 0 0 0 0.275 0 0 0 0.25 0"/>
<feBlend mode="normal" in2="effect1_backgroundBlur_3_1618" result="effect2_dropShadow_3_1618"/>
<feBlend mode="normal" in="SourceGraphic" in2="effect2_dropShadow_3_1618" result="shape"/>
</filter>
<linearGradient id="paint0_linear_3_1618" x1="132.272" y1="45.5552" x2="132.272" y2="91.44" gradientUnits="userSpaceOnUse">
<stop stop-color="#FFE600"/>
<stop offset="1" stop-color="#FF7A00"/>
</linearGradient>
<linearGradient id="paint1_linear_3_1618" x1="132.272" y1="45.5552" x2="132.272" y2="91.44" gradientUnits="userSpaceOnUse">
<stop stop-color="white"/>
<stop offset="1" stop-color="white" stop-opacity="0"/>
</linearGradient>
<linearGradient id="paint2_linear_3_1618" x1="132.272" y1="45.5556" x2="132.272" y2="91.4404" gradientUnits="userSpaceOnUse">
<stop stop-color="#FFD600"/>
<stop offset="1" stop-color="#FF7A00"/>
</linearGradient>
<linearGradient id="paint3_linear_3_1618" x1="111.274" y1="46.5277" x2="111.274" y2="137.909" gradientUnits="userSpaceOnUse">
<stop stop-color="white"/>
<stop offset="1" stop-color="white" stop-opacity="0"/>
</linearGradient>
<linearGradient id="paint4_linear_3_1618" x1="111.274" y1="66.5537" x2="111.274" y2="129.159" gradientUnits="userSpaceOnUse">
<stop stop-color="white"/>
<stop offset="1" stop-color="white" stop-opacity="0"/>
</linearGradient>
<linearGradient id="paint5_linear_3_1618" x1="152.881" y1="67.9147" x2="152.881" y2="116.91" gradientUnits="userSpaceOnUse">
<stop stop-color="white"/>
<stop offset="1" stop-color="white" stop-opacity="0"/>
</linearGradient>
<linearGradient id="paint6_linear_3_1618" x1="149.77" y1="66.5537" x2="149.77" y2="111.798" gradientUnits="userSpaceOnUse">
<stop stop-color="white"/>
<stop offset="1" stop-color="white" stop-opacity="0"/>
</linearGradient>
</defs>
</svg>
